<svg width="40" height="40" viewBox="0 0 40 40" fill="none" xmlns="http://www.w3.org/2000/svg">
<g clip-path="url(#clip0_747_6015)">
<path fill-rule="evenodd" clip-rule="evenodd" d="M39.4001 23.3334C38.1001 20.1501 35.9501 20.7001 34.2334 19.0001C33.4501 18.7501 33.1168 19.7001 33.5168 19.9334C35.7168 21.9334 38.9501 21.6001 38.5168 26.8167C38.4708 28.3758 38.0034 29.8933 37.1641 31.208C36.3248 32.5227 35.145 33.5855 33.7501 34.2834C25.2834 39.0667 9.48344 38.2834 3.96677 34.2834C0.000105461 31.3834 0.300106 24.5167 6.20011 21.0501C6.31724 20.986 6.40412 20.878 6.44163 20.7498C6.47914 20.6217 6.4642 20.4839 6.4001 20.3667C6.33601 20.2496 6.22801 20.1627 6.09986 20.1252C5.97171 20.0877 5.83391 20.1026 5.71677 20.1667C-0.949894 23.8167 -1.68323 31.8334 3.03344 35.5334C5.08712 37.1076 7.46779 38.2012 10.0001 38.7334C14.9615 39.5344 20.0107 39.6353 25.0001 39.0334C29.5501 38.3501 34.9168 36.5334 37.8334 32.9667C38.8641 31.6124 39.546 30.0254 39.8192 28.3456C40.0924 26.6658 39.9484 24.9445 39.4001 23.3334Z" fill="white"/>
<path fill-rule="evenodd" clip-rule="evenodd" d="M33.3334 18.2166C33.9334 16.1832 32.5167 13.8832 30.9667 12.4332C29.8112 11.4273 28.5069 10.6065 27.1001 9.99991C25.8361 9.59254 24.5257 9.34615 23.2001 9.26658C18.9834 8.53325 10.7167 10.1832 8.20007 13.0332C7.70007 13.5832 5.30007 15.4666 5.31674 17.4999C5.31674 18.4832 6.46674 21.9666 9.3834 19.9166C13.6334 16.9166 15.6501 14.7832 19.6834 14.7999C22.156 14.9035 24.5315 15.7907 26.4667 17.3332C27.5501 18.0999 28.2501 19.6499 29.9001 20.0832C30.3951 20.2498 30.9279 20.2692 31.4338 20.139C31.9396 20.0088 32.3969 19.7347 32.7501 19.3499C33.0205 19.0164 33.2191 18.6305 33.3334 18.2166ZM29.6334 17.8166C27.9696 15.9101 25.7768 14.541 23.3334 13.8832C21.8901 13.3523 20.3512 13.1308 18.8167 13.2332C16.8299 13.5148 14.9102 14.1528 13.1501 15.1166C11.4263 16.6725 9.61206 18.125 7.71674 19.4666C6.71674 18.7832 6.3334 18.0999 6.35007 17.4332C6.35007 15.7666 8.6334 14.2999 9.06674 13.8499C10.6597 12.3306 12.6764 11.331 14.8501 10.9832C18.097 10.347 21.4365 10.347 24.6834 10.9832C33.0001 13.8166 32.5501 20.1499 29.6167 17.8166H29.6334Z" fill="white"/>
<path fill-rule="evenodd" clip-rule="evenodd" d="M22.9 22.4501C22.9 22.6004 22.9597 22.7445 23.066 22.8508C23.1723 22.9571 23.3164 23.0168 23.4667 23.0168C23.617 23.0168 23.7611 22.9571 23.8674 22.8508C23.9737 22.7445 24.0334 22.6004 24.0334 22.4501C24.3667 19.4501 22.65 17.6834 21.9167 16.0501C21.45 15.6334 20.4834 15.4001 20.5334 16.3168C20.4834 19.5334 22.6667 20.3834 22.9 22.4501Z" fill="white"/>
<path fill-rule="evenodd" clip-rule="evenodd" d="M15.2002 19.5167C14.2835 21.7167 13.8669 22.2001 14.0502 22.5834C14.0871 22.693 14.1597 22.7871 14.2564 22.8505C14.3531 22.914 14.4683 22.9432 14.5835 22.9334C15.5835 22.9334 18.2335 17.6167 19.0835 15.9167C19.0835 15.2001 17.6835 15.3667 17.4169 15.9167C16.4426 16.9549 15.6886 18.1795 15.2002 19.5167Z" fill="white"/>
<path fill-rule="evenodd" clip-rule="evenodd" d="M19.7001 8.11666C19.4429 7.45468 19.3722 6.73485 19.4956 6.03548C19.619 5.3361 19.9319 4.68396 20.4001 4.14999C23.9834 -0.116672 30.0168 5.26666 27.2501 8.19999C26.9001 8.58333 27.0168 8.48333 26.8001 8.63333C26.5001 9.06666 27.1001 9.93333 27.7168 9.51666C27.8697 9.44586 28.006 9.34364 28.1168 9.21666C28.5835 8.71189 28.9377 8.11365 29.1556 7.46161C29.3736 6.80957 29.4505 6.11864 29.3812 5.43463C29.3118 4.75063 29.0978 4.08918 28.7534 3.49416C28.409 2.89914 27.942 2.38414 27.3834 1.98333C26.7949 1.44214 26.0954 1.03579 25.3337 0.792589C24.572 0.549384 23.7665 0.475174 22.9732 0.575129C22.1799 0.675083 21.4179 0.946799 20.7404 1.37134C20.0629 1.79589 19.486 2.36306 19.0501 3.03333C17.9001 4.69999 18.6501 4.69999 17.9501 4.23333C15.7334 2.68333 12.4001 2.69999 10.9501 4.96666C10.5563 5.6503 10.3299 6.41742 10.2893 7.20532C10.2488 7.99322 10.3952 8.77954 10.7168 9.49999C10.8668 10.15 11.9834 9.94999 11.8168 9.29999C11.4834 6.33333 13.4834 4.11666 16.6501 5.26666C18.6001 5.98333 17.8834 6.59999 18.5168 8.33333C18.6834 8.91666 19.8668 8.86666 19.7834 8.33333C19.7501 8.33333 19.7334 8.18333 19.7001 8.11666Z" fill="white"/>
</g>
<defs>
<clipPath id="clip0_747_6015">
<rect width="40" height="40" fill="white"/>
</clipPath>
</defs>
</svg>
